<?xml version="1.0" encoding="UTF-8"?>
<svg id="Layer_2" data-name="Layer 2" xmlns="http://www.w3.org/2000/svg" viewBox="0 0 187.99 79.53">
  <defs>
    <style>
      .cls-1 {
        font-size: 36px;
      }

      .cls-2 {
        font-size: 24px;
      }

      .cls-3 {
        fill: #f2f2f2;
        font-family: SegoeScript, 'Segoe Script';
      }

      .cls-4 {
        fill: #f2f2f2;
        stroke-width: 2px;
      }

      .cls-4, .cls-5 {
        stroke-miterlimit: 10;
      }

      .cls-5 {
        fill: none;
        stroke: #fff;
        stroke-width: 4px;
      }
    </style>
  </defs>
  <g id="Layer_1-2" data-name="Layer 1">
    <path class="cls-4" d="m29.71,26.11c-.08,1.6-1.14,3.31-2.26,4.78-3.53,4.51-9.15,7.9-15.11,7.87-.99-.05-2.41-.44-3.29-.95-.3-.18-.46-.37-.46-.57.31-4.22,5.35-2.35,8.16-3.18,3.08-.84,6.51-2.58,8.14-5.45,2.54-4.77-4.02-10.03-8.52-7.3-1.15.57-2.5.95-3.64.68-1.13-.13-1.42-.98-1.39-2.05,0-.27.21-.53.62-.79,1.4-.88,3.51-1.51,4.96-2.31,1.99-1.17,3.97-2.75,5.6-4.42,1.21-1.32,2.65-2.81,2.84-4.54-.63-4.14-6.1-3.24-9.25-2.85-1.98.32-4.24.67-5.98,1.49-.4.2-.62.41-.67.61-1.31,6.98-2.54,14.92-3.39,22-.58,2.59.93,5.41-.81,7.44-.6.56-1.44.64-2.27.66-1.47-.15-1.9-2.34-1.99-3.52.09-1.12.44-2.1.77-3.59,1.04-4.95,1.79-10.81,2.39-15.83.12-1.85.6-3.37.32-4.79-.23-1.07-1.36-.89-2.19-.87-.61-.04-1.06-.94-1.03-1.57.17-1.2,1.48-1.88,2.71-2.58,3.68-1.84,8.03-2.69,12.35-3.18,2.72-.16,6.11-.78,8.82.32,2.42,1,4.78,3.19,4.88,5.84-.1,1.46-1.22,3-2.25,4.36-1.46,1.85-3.4,3.8-5.3,5.34,0,.16.18.34.55.55,1.26.75,3.16,1.37,4.25,2.4,1.7,1.46,2.46,3.66,2.44,5.98Z"/>
    <path class="cls-4" d="m42.02,43.26c-.18,2.09-1.64,4.19-2.87,5.99-1.31,1.76-2.82,3.75-4.46,5-4.67,2.54-11.04,3.73-16.08,1.62-1.4-.6-3.4-1.5-2.54-3.11.33-.74,1.06-1.24,1.86-1.23.81.04,1.45.57,2.37.86,4.93,2.01,11.28.23,15.05-3.56,4.44-5.08,1.91-8.06-4.01-9.14-3.5-.84-6.99-.28-10.15.86-.65.15-1.41.48-1.91,0-.6-.93-.75-2.88-.01-3.69,1.8-1.35,4.29-1.02,6.59-1.84,3.12-.96,6-3.52,7.51-6.35.79-1.6,0-3.26-1.36-4.16-2.01-1.33-4.48-1-6.81-.87-2.06.17-4.13.57-5.89,1.54-.84.45-1.5,1.05-1.98,1.78-.52,1.36-.46,3.2-.62,4.82-.3,4.64-.52,9.09-.79,13.77-.3,2.42-.49,10.66-4.35,9.02-1.19-.85-1.07-1.97-.91-3.45.2-1.63.44-3.51.68-5.43.6-5.11,1.46-10.83,1.7-15.86.02-1.18-.32-1.85-.93-2.61-.5-.64-.96-1.01-.93-1.96-.02-.99.35-2.13,1.38-2.2,5.22-.54,10.68-3.37,16.22-3.16,4.71-.2,10.66,2.66,8.77,8.26-1.2,2.92-3.96,5.2-5.84,7.63,4.04,1.16,10.11,2.4,10.31,7.48Z"/>
    <path class="cls-4" d="m62.03,46.64c-.17,6-6.46,10.16-11.36,13.02-4.76,2.81-9.3,3.73-14.38,5.99-.36.18-.72.39-1.15.61-.52.3-.93.48-1.24.54-2.88.77-4.86.78-5.67-2.02-.29-1.45-.63-2.25-.3-3.61.25-1.4.28-2.96.59-4.45.61-3.78,1.28-8.83,2.25-12.96.3-1.66,1.48-3.59-.45-4.64-1.33-.78-1.02-2.13-.09-3.23.55-.64,1.12-.96,1.71-.96,1.07-.05,4.37.43,5.37.42,7.06-.23,15.17-1.25,20.98,3.52,1.63,1.01,3.86,5.89,3.75,7.78Zm-4.08,0c-.06-7.88-11.31-7.95-17.11-7.66-1.77.15-3.13.34-4.92.4-.47,2.2-.9,4.42-1.31,6.73-.15.91-.35,1.82-.56,2.93-.55,2.85-1.05,5.51-1.25,8.38-.12,1.42-.1,3.23.48,4.3,3.67-.46,7.46-2.14,10.95-3.26,6.46-2.34,8.46-2.87,11.18-6.52,1.08-1.52,2.49-3.61,2.55-5.3Z"/>
    <text class="cls-3" transform="translate(65.05 61.71)"><tspan class="cls-1" x="0" y="0">M</tspan><tspan class="cls-2" x="36.18" y="0">anager</tspan></text>
    <path class="cls-5" d="m177.59,23.63c-50.2,27.92-68.27-24.68-115.2-1.08"/>
  </g>
</svg>